<svg xmlns="http://www.w3.org/2000/svg" width="18.281" height="24" viewBox="0 0 18.281 24">
  <path id="Path_3" data-name="Path 3" d="M78.968,16.712l-1.093-.729V9.656a7.745,7.745,0,0,0-7.031-7.7V.7a.7.7,0,1,0-1.406,0V1.954a7.745,7.745,0,0,0-7.031,7.7v6.327l-1.093.729A.7.7,0,0,0,61,17.3v2.813a.7.7,0,0,0,.7.7h4.635a3.862,3.862,0,0,0,7.605,0h4.635a.7.7,0,0,0,.7-.7V17.3A.7.7,0,0,0,78.968,16.712Zm-8.827,5.882a2.469,2.469,0,0,1-2.361-1.781H72.5A2.469,2.469,0,0,1,70.141,22.594Zm7.734-3.188H62.406V17.673l1.093-.729a.7.7,0,0,0,.313-.585v-6.7a6.328,6.328,0,1,1,12.656,0v6.7a.7.7,0,0,0,.313.585l1.093.729Z" transform="translate(-61)" fill="#34495e"/>
</svg>
