<svg xmlns="http://www.w3.org/2000/svg" width="23.165" height="24" viewBox="0 0 23.165 24">
  <g id="Group_1" data-name="Group 1" transform="translate(-393 -394)">
    <path id="Path_1" data-name="Path 1" d="M409.145,402.257v-4.21A1.548,1.548,0,0,0,407.6,396.5H394.547A1.543,1.543,0,0,0,393,398.047v4.21a1.544,1.544,0,0,0,1.547,1.549H407.59a1.551,1.551,0,0,0,1.555-1.549Zm-11.759-.843a2.073,2.073,0,0,0,.807-.139l.167,1.042a3.448,3.448,0,0,1-1.26.2,2.207,2.207,0,0,1-2.407-2.325,2.367,2.367,0,0,1,2.6-2.405,3.113,3.113,0,0,1,1.07.175l-.22,1.042a1.945,1.945,0,0,0-.785-.139,1.273,1.273,0,0,0,.023,2.544Zm2.963,1.108a3.238,3.238,0,0,1-1.467-.315l.25-1.012a2.821,2.821,0,0,0,1.217.346c.426,0,.6-.154.6-.383s-.139-.344-.667-.52c-.931-.315-1.3-.828-1.284-1.363,0-.845.719-1.482,1.842-1.482a3.042,3.042,0,0,1,1.283.255l-.248.976a2.149,2.149,0,0,0-.984-.265c-.344,0-.543.139-.543.374,0,.214.176.323.734.522.866.293,1.224.732,1.232,1.4,0,.843-.668,1.467-1.966,1.467Zm5.406-.1H404.34l-1.651-4.54h1.534l.608,2.1a9.88,9.88,0,0,1,.263,1.108h.03c.073-.374.146-.719.25-1.108l.586-2.1h1.482Zm0,0" transform="translate(0 2.194)" fill="#34495e"/>
    <path id="Path_2" data-name="Path 2" d="M413.17,394H396.328a.641.641,0,0,0-.644.646v3.08h1.928v-2.113h14.172v15.156H407.94a.7.7,0,0,0-.507.212.724.724,0,0,0-.212.507l.015,4.8h-9.624V406.94h-1.928v10.416a.645.645,0,0,0,.644.644h12.559a.658.658,0,0,0,.484-.22l4.276-4.79a.61.61,0,0,0,.162-.424v-17.92a.635.635,0,0,0-.638-.646Zm0,0" transform="translate(2.356)" fill="#34495e"/>
  </g>
</svg>
