<svg xmlns="http://www.w3.org/2000/svg" width="32" height="32" viewBox="0 0 32 32">
  <g id="Group_7" data-name="Group 7" transform="translate(-808 -248)">
    <rect id="Rectangle_20" data-name="Rectangle 20" width="32" height="32" rx="6" transform="translate(808 248)" fill="#0461f5" opacity="0.1"/>
    <path id="Path_9" data-name="Path 9" d="M14.269,68H1.894A1.9,1.9,0,0,0,0,69.894v8.082A1.9,1.9,0,0,0,1.894,79.87H14.269a1.9,1.9,0,0,0,1.894-1.894V69.894A1.9,1.9,0,0,0,14.269,68Zm-.115,1.263L8.082,73.779,2.009,69.263Zm.115,9.344H1.894a.632.632,0,0,1-.631-.631V70.281l6.819,5.072L14.9,70.281v7.694A.632.632,0,0,1,14.269,78.607Z" transform="translate(816 190.203)" fill="#0461f5"/>
  </g>
</svg>
