<svg xmlns="http://www.w3.org/2000/svg" width="24" height="22.499" viewBox="0 0 24 22.499">
  <g id="Group_17" data-name="Group 17" transform="translate(-24 -132.751)">
    <path id="Path_48" data-name="Path 48" d="M256.094,366.224H240.156A2.159,2.159,0,0,1,238,364.068V352.723a.75.75,0,1,1,1.5,0v11.345a.657.657,0,0,0,.656.656h15.938a.657.657,0,0,0,.656-.656V352.723a.75.75,0,1,1,1.5,0v11.345a2.159,2.159,0,0,1-2.156,2.156Zm0,0" transform="translate(-212.125 -210.975)" fill="#fff"/>
    <path id="Path_49" data-name="Path 49" d="M231.25,231.634a.747.747,0,0,1-.53-.22l-9.328-9.327a1.97,1.97,0,0,0-2.784,0l-9.328,9.327a.75.75,0,0,1-1.06-1.061l9.328-9.328a3.472,3.472,0,0,1,4.905,0l9.328,9.328a.75.75,0,0,1-.53,1.28Zm0,0" transform="translate(-184 -87.261)" fill="#fff"/>
    <path id="Path_50" data-name="Path 50" d="M346.75,433.738h-6a.75.75,0,0,1-.75-.75v-6.656a2.346,2.346,0,0,1,2.344-2.344h2.813a2.346,2.346,0,0,1,2.344,2.344v6.656a.75.75,0,0,1-.75.75Zm-5.25-1.5H346v-5.906a.845.845,0,0,0-.844-.844h-2.812a.845.845,0,0,0-.844.844Zm0,0" transform="translate(-307.75 -278.489)" fill="#fff"/>
  </g>
</svg>
