<svg xmlns="http://www.w3.org/2000/svg" width="32" height="32" viewBox="0 0 32 32">
  <g id="Group_5" data-name="Group 5" transform="translate(-808 -248)">
    <rect id="Rectangle_20" data-name="Rectangle 20" width="32" height="32" rx="6" transform="translate(808 248)" fill="#0461f5" opacity="0.1"/>
    <g id="Group_4" data-name="Group 4" transform="translate(608 48)">
      <path id="Path_7" data-name="Path 7" d="M222.857,222.857H209.143V209.143H216V208h-7.429a.571.571,0,0,0-.571.571v14.857a.571.571,0,0,0,.571.571h14.857a.571.571,0,0,0,.571-.571V216h-1.143Zm0,0" fill="#0461f5"/>
      <path id="Path_8" data-name="Path 8" d="M392.995,208v1.143h3.763L390.3,215.6l.808.808,6.453-6.453v3.764h1.143V208Zm0,0" transform="translate(-174.709)" fill="#0461f5"/>
    </g>
  </g>
</svg>
