<svg xmlns="http://www.w3.org/2000/svg" width="24" height="22.5" viewBox="0 0 24 22.5">
  <g id="Group_18" data-name="Group 18" transform="translate(-208 -220)">
    <path id="Path_51" data-name="Path 51" d="M228.906,220H211.094A3.1,3.1,0,0,0,208,223.094v16.313a3.1,3.1,0,0,0,3.094,3.094H226.75a3.444,3.444,0,0,0,2.451-1.015l1.784-1.784A3.444,3.444,0,0,0,232,237.25V223.094A3.1,3.1,0,0,0,228.906,220Zm-17.812,1.5h17.813a1.6,1.6,0,0,1,1.594,1.594v2.156h-21v-2.156a1.6,1.6,0,0,1,1.594-1.594ZM209.5,239.406V226.75h21v9.75h-2.344A2.159,2.159,0,0,0,226,238.656V241H211.094a1.6,1.6,0,0,1-1.594-1.594Zm20.424-.766-1.784,1.784a1.961,1.961,0,0,1-.64.429v-2.2a.657.657,0,0,1,.656-.656h2.2a1.961,1.961,0,0,1-.429.64Zm0,0" transform="translate(0 0)" fill="#fff"/>
    <path id="Path_52" data-name="Path 52" d="M305.5,364.75a.75.75,0,0,0-.75-.75h-12a.75.75,0,0,0,0,1.5h12a.75.75,0,0,0,.75-.75Zm0,0" transform="translate(-78.75 -135)" fill="#fff"/>
    <path id="Path_53" data-name="Path 53" d="M325.75,424h-9a.75.75,0,1,0,0,1.5h9a.75.75,0,0,0,0-1.5Zm0,0" transform="translate(-101.25 -191.25)" fill="#fff"/>
  </g>
</svg>
