<svg xmlns="http://www.w3.org/2000/svg" width="24" height="24" viewBox="0 0 24 24">
  <g id="Group_20" data-name="Group 20" transform="translate(-208 -208)">
    <path id="Path_56" data-name="Path 56" d="M231.231,227.519l-6.285-6.286A9,9,0,0,0,217.206,208L217,208a9,9,0,0,0,0,18l.205,0a8.958,8.958,0,0,0,4.028-1.052l6.285,6.285a2.625,2.625,0,1,0,3.712-3.711ZM217.172,224.5l-.172,0a7.5,7.5,0,0,1,0-15l.172,0a7.5,7.5,0,0,1,0,15Zm13,5.673a1.124,1.124,0,0,1-1.59,0l-6.061-6.06a9.071,9.071,0,0,0,1.591-1.591l6.061,6.061a1.124,1.124,0,0,1,0,1.591Zm0,0" transform="translate(0 0)" fill="#fff"/>
    <path id="Path_57" data-name="Path 57" d="M262,256a6,6,0,1,0,6,6,6.007,6.007,0,0,0-6-6Zm0,10.5a4.5,4.5,0,1,1,4.5-4.5,4.5,4.5,0,0,1-4.5,4.5Zm0,0" transform="translate(-45 -45)" fill="#fff"/>
  </g>
</svg>
