<svg xmlns="http://www.w3.org/2000/svg" width="24" height="24" viewBox="0 0 24 24">
  <g id="Group_19" data-name="Group 19" transform="translate(-208 -208)">
    <path id="Path_54" data-name="Path 54" d="M220,232a2.628,2.628,0,0,1-2.625-2.625v-.764a8.917,8.917,0,0,1-1.607-.666l-.541.541a2.625,2.625,0,1,1-3.712-3.712l.541-.541a8.914,8.914,0,0,1-.666-1.607h-.764a2.625,2.625,0,0,1,0-5.25h.764a8.916,8.916,0,0,1,.666-1.607l-.541-.541a2.625,2.625,0,1,1,3.712-3.712l.541.541a8.916,8.916,0,0,1,1.607-.666v-.764A2.626,2.626,0,0,1,220,208a2.623,2.623,0,0,1,2.625,2.625v.764a8.914,8.914,0,0,1,1.607.666l.541-.541a2.625,2.625,0,1,1,3.712,3.712l-.541.541a8.917,8.917,0,0,1,.666,1.607h.764a2.625,2.625,0,0,1,0,5.25h-.764a8.915,8.915,0,0,1-.666,1.607l.541.541a2.625,2.625,0,0,1-3.712,3.712l-.541-.541a8.923,8.923,0,0,1-1.607.666v.764a2.627,2.627,0,0,1-2.1,2.573h0A2.659,2.659,0,0,1,220,232Zm.375-.788h0Zm-4.731-4.955a.748.748,0,0,1,.4.113,7.434,7.434,0,0,0,2.254.934.75.75,0,0,1,.581.731v1.339A1.126,1.126,0,0,0,220,230.5a1.164,1.164,0,0,0,.226-.022,1.127,1.127,0,0,0,.9-1.1v-1.339a.75.75,0,0,1,.581-.731,7.434,7.434,0,0,0,2.254-.934.75.75,0,0,1,.927.106l.947.947a1.125,1.125,0,0,0,1.591-1.591l-.947-.947a.75.75,0,0,1-.106-.927,7.434,7.434,0,0,0,.934-2.254.75.75,0,0,1,.731-.581h1.339a1.125,1.125,0,0,0,0-2.25h-1.339a.75.75,0,0,1-.731-.581,7.434,7.434,0,0,0-.934-2.254.75.75,0,0,1,.106-.927l.947-.947a1.125,1.125,0,0,0-1.591-1.591l-.947.947a.75.75,0,0,1-.927.106,7.435,7.435,0,0,0-2.254-.934.75.75,0,0,1-.581-.731v-1.339a1.128,1.128,0,0,0-.9-1.1A1.145,1.145,0,0,0,220,209.5a1.126,1.126,0,0,0-1.125,1.125v1.339a.75.75,0,0,1-.581.731,7.434,7.434,0,0,0-2.254.934.75.75,0,0,1-.927-.106l-.947-.947a1.125,1.125,0,0,0-1.591,1.591l.947.947a.75.75,0,0,1,.106.927,7.434,7.434,0,0,0-.934,2.254.75.75,0,0,1-.731.581h-1.339a1.125,1.125,0,0,0,0,2.25h1.339a.75.75,0,0,1,.731.581,7.435,7.435,0,0,0,.934,2.254.75.75,0,0,1-.106.927l-.947.947a1.125,1.125,0,0,0,1.591,1.591l.947-.947a.75.75,0,0,1,.531-.22Zm0,0" transform="translate(0 0)" fill="#fff"/>
    <path id="Path_55" data-name="Path 55" d="M321.25,326.5a5.25,5.25,0,0,1,0-10.5c.149,0,.3.006.44.019a5.25,5.25,0,0,1,0,10.463c-.139.012-.287.018-.437.018Zm0-9a3.75,3.75,0,0,0,0,7.5c.106,0,.21,0,.31-.013a3.75,3.75,0,0,0,0-7.473c-.1-.009-.208-.013-.313-.013Zm0,0" transform="translate(-101.25 -101.25)" fill="#fff"/>
  </g>
</svg>
